# xmcd
#
# Track frame offsets: 
#        150
#        26775
#        61473
#        88589
#        111403
#        133570
#        161127
#        186335
#        217274
#        243009
#
# Disc length: 3768 seconds
#
# Revision: 24
# Processed by: cddbd v1.5.2PL0 Copyright (c) Steve Scherf et al.
# Submitted via: ExactAudioCopyFreeDBPlugin 1.0
#
DISCID=930eb60a
DTITLE=BOB DYLAN - Modern Times
DYEAR=2006
DGENRE=Rock
TTITLE0=Thunder on the mountain
TTITLE1=Spirit on the water
TTITLE2=Rollin' and tumblin'
TTITLE3=When the deal goes down
TTITLE4=Someday baby
TTITLE5=Workingman's blues #2
TTITLE6=Beyond the horizon
TTITLE7=Nettie Moore
TTITLE8=The levee's gonna break
TTITLE9=Ain't talkin'
EXTD=YEAR: 2006
EXTT0=
EXTT1=
EXTT2=
EXTT3=
EXTT4=
EXTT5=
EXTT6=
EXTT7=
EXTT8=
EXTT9=
PLAYORDER=
